<svg viewBox="0 0 800 800" xmlns="http://www.w3.org/2000/svg"><path d="M259.3712269627898,133.4146621672138 L259.37122546793717,133.41439773583045 M-61.53414659100741,313.4873656500583 L-61.53415165045476,313.48709916111625 M259.3712269627898,133.4146621672138 L-61.53414659100741,313.4873656500583 M259.37122546793717,133.41439773583045 L-61.53415165045476,313.48709916111625 M540.6315439503227,666.5856022641694 L540.631545583651,666.5853319144776 M-61.53414659100741,313.4873656500583 L540.6315439503227,666.5856022641694 M-61.53415165045476,313.48709916111625 L540.631545583651,666.5853319144776 M861.5341464526548,475.8008384832362 L861.5341516504548,475.80057019097524 M540.6315439503227,666.5856022641694 L861.5341464526548,475.8008384832362 M540.631545583651,666.5853319144776 L861.5341516504548,475.80057019097524 M861.5341464526548,475.8008384832362 L259.3712269627898,133.4146621672138 M861.5341516504548,475.80057019097524 L259.37122546793717,133.41439773583045 M581.8633792088723,421.29824496060115 L581.8633812688093,421.29797726844345 M350.2917266738414,288.4769098669515 L350.29172616065836,288.47664366020433 M581.8633792088723,421.29824496060115 L350.2917266738414,288.4769098669515 M581.8633812688093,421.29797726844345 L350.29172616065836,288.47664366020433 M444.315321858605,501.60393838073406 L444.3153223902925,501.6036698062803 M444.315321858605,501.60393838073406 L581.8633792088723,421.29824496060115 M444.3153223902925,501.6036698062803 L581.8633812688093,421.29797726844345 M212.74360826364213,367.01767785770926 L212.74360622220675,367.0174107686628 M212.74360826364213,367.01767785770926 L444.315321858605,501.60393838073406 M212.74360622220675,367.0174107686628 L444.3153223902925,501.6036698062803 M350.2917266738414,288.4769098669515 L212.74360826364213,367.01767785770926 M350.29172616065836,288.47664366020433 L212.74360622220675,367.0174107686628" stroke="black"  stroke-width="4"  fill="red"/></svg>