<svg viewBox="0 0 800 800" xmlns="http://www.w3.org/2000/svg"><path d="M288.16978883002434,209.23263036294418 L287.9345041311207,159.42152004311612 M-61.19565570584666,354.4562860566854 L287.9345041311207,159.42152004311612 M-60.192478004011264,404.71248314796037 L-61.19565570584666,354.4562860566854 M288.16978883002434,209.23263036294418 L-60.192478004011264,404.71248314796037 M511.76359703942376,740.8474522674769 L512.0218380631845,689.8603078373778 M-60.192478004011264,404.71248314796037 L511.76359703942376,740.8474522674769 M-61.19565570584666,354.4562860566854 L512.0218380631845,689.8603078373778 M861.1493318804005,483.1968731346399 L512.0218380631845,689.8603078373778 M860.1232212440516,533.7387903356635 L861.1493318804005,483.1968731346399 M511.76359703942376,740.8474522674769 L860.1232212440516,533.7387903356635 M860.1232212440516,533.7387903356635 L288.16978883002434,209.23263036294418 M861.1493318804005,483.1968731346399 L287.9345041311207,159.42152004311612 M169.33043699615655,324.66511049770804 L171.5803710680582,326.32667306001946 M171.5803710680582,326.32667306001946 L173.0617350876329,328.25209371810183 M173.0617350876329,328.25209371810183 L173.68811377120448,330.3296828115916 M173.68811377120448,330.3296828115916 L173.42265268496595,332.43880253653094 M173.42265268496595,332.43880253653094 L172.28027444063582,334.45683257936935 M172.28027444063582,334.45683257936935 L170.32700302038745,336.26635319559637 M170.32700302038745,336.26635319559637 L167.6761065359795,337.76193985703185 M167.6761065359795,337.76193985703185 L164.4816511231031,338.85639570937064 M164.4816511231031,338.85639570937064 L160.92954536832045,339.48588347158625 M160.92954536832045,339.48588347158625 L157.22659777520082,339.61364270925657 M157.22659777520082,339.61364270925657 L153.5885182504904,339.23222713178785 M153.5885182504904,339.23222713178785 L150.2271847400166,338.3638984236466 M150.2271847400166,338.3638984236466 L147.33826458183086,337.0593274143328 M147.33826458183086,337.0593274143328 L145.08976352545355,335.39460355515325 M145.08976352545355,335.39460355515325 L143.61223641507593,333.4667458175286 M143.61223641507593,333.4667458175286 L142.99121954134603,331.3880021646922 M142.99121954134603,331.3880021646922 L143.26233902847866,329.27927489720685 M143.26233902847866,329.27927489720685 L144.40937595620446,327.2630944148395 M144.40937595620446,327.2630944148395 L146.36523915467868,325.4564567687304 M146.36523915467868,325.4564567687304 L149.01606671476807,323.96412601584433 M149.01606671476807,323.96412601584433 L152.2078082896273,322.8725531128097 M152.2078082896273,322.8725531128097 L155.75517705080492,322.2449149322293 M155.75517705080492,322.2449149322293 L159.45244962376483,322.11754814066035 M159.45244962376483,322.11754814066035 L163.08521621904043,322.49780915900027 M163.08521621904043,322.49780915900027 L166.44281600428423,323.36370078732836 M166.44281600428423,323.36370078732836 L169.33043699615655,324.66511049770804 M653.3007026208444,603.7753511462868 L655.6793138442234,605.5201273159071 M655.6793138442234,605.5201273159071 L657.2819557516962,607.5419918952898 M657.2819557516962,607.5419918952898 L658.0151579319781,609.7236661360514 M658.0151579319781,609.7236661360514 L657.8358396597534,611.938470984609 M657.8358396597534,611.938470984609 L656.753890414021,614.0576409398493 M656.753890414021,614.0576409398493 L654.8317967711442,615.9578673046706 M654.8317967711442,615.9578673046706 L652.1809913212868,617.5284345402292 M652.1809913212868,617.5284345402292 L648.9555226241533,618.6777669758503 M648.9555226241533,618.6777669758503 L645.3431034870749,619.3388200782442 M645.3431034870749,619.3388200782442 L641.5540591889309,619.4729859598735 M641.5540591889309,619.4729859598735 L637.8091272008284,619.0724440522854 M637.8091272008284,619.0724440522854 L634.3264222207523,618.1605749387913 M634.3264222207523,618.1605749387913 L631.3086905582459,616.790595651898 M631.3086905582459,616.790595651898 L628.9314418616227,615.0424176324416 M628.9314418616227,615.0424176324416 L627.3327194220369,613.017930528543 M627.3327194220369,613.017930528543 L626.605095744247,610.8350138744277 M626.605095744247,610.8350138744277 L626.7903736032099,608.6206313466298 M626.7903736032099,608.6206313466298 L627.8772982112313,606.5034516906687 M627.8772982112313,606.5034516906687 L629.8022432608517,604.60632767016 M629.8022432608517,604.60632767016 L632.4531228833331,603.0392640954419 M632.4531228833331,603.0392640954419 L635.6758715255593,601.8930339818203 M635.6758715255593,601.8930339818203 L639.2833995668476,601.233971201576 M639.2833995668476,601.233971201576 L643.0665021550672,601.1002276285149 M643.0665021550672,601.1002276285149 L646.8058030353614,601.4995271229157 M646.8058030353614,601.4995271229157 L650.2844775128688,602.4087737115005 M650.2844775128688,602.4087737115005 L653.3007026208444,603.7753511462868 M573.0674575289219,494.6988120089561 L353.10936635852795,368.5386062407526 M442.41757958505787,570.9770906386567 L573.0674575289219,494.6988120089561 M222.45943041695165,443.1404723033117 L442.41757958505787,570.9770906386567 M353.10936635852795,368.5386062407526 L222.45943041695165,443.1404723033117 M169.33043699615655,324.66511049770804 L168.83400544029945,274.58939429551174 M168.83400544029945,274.58939429551174 L165.94015627826826,273.290939219279 M165.94015627826826,273.290939219279 L162.57528715528187,272.4270138149795 M162.57528715528187,272.4270138149795 L158.93463114010373,272.0476163658215 M158.93463114010373,272.0476163658215 L155.22930557841642,272.1746939024099 M155.22930557841642,272.1746939024099 L151.6741862052346,272.800906783265 M151.6741862052346,272.800906783265 L148.47544499270185,273.8900012012364 M148.47544499270185,273.8900012012364 L145.81877459622228,275.3789442652851 M145.81877459622228,275.3789442652851 L143.85856488577713,277.1814818724025 M143.85856488577713,277.1814818724025 L142.70893126690044,279.19308825630276 M142.70893126690044,279.19308825630276 L142.43711761387658,281.2970331390796 M142.43711761387658,281.2970331390796 L143.0593852509959,283.37106408248815 M143.0593852509959,283.37106408248815 L144.5400373838065,285.2945526700844 M144.5400373838065,285.2945526700844 L146.79335755900036,286.95550487694226 M146.79335755900036,286.95550487694226 L149.68851140670785,288.2571209534764 M149.68851140670785,288.2571209534764 L153.05713042515197,289.1234832073723 M153.05713042515197,289.1234832073723 L156.70312248643927,289.5040351065953 M156.70312248643927,289.5040351065953 L160.41414783571582,289.3765651609773 M160.41414783571582,289.3765651609773 L163.97402494659647,288.74850287320555 M163.97402494659647,288.74850287320555 L167.17549196593646,287.65652577826665 M167.17549196593646,287.65652577826665 L169.8322317380995,286.1643271132408 M169.8322317380995,286.1643271132408 L171.78983850086433,284.35890680835104 M171.78983850086433,284.35890680835104 L172.9347932050885,282.34545103870397 M172.9347932050885,282.34545103870397 L173.20092379863144,280.2411137355481 M173.20092379863144,280.2411137355481 L172.57327091489563,278.1682372424168 M172.57327091489563,278.1682372424168 L171.08876502693283,276.247185504138 M171.08876502693283,276.247185504138 L168.83400544029945,274.58939429551174 M653.3007026208444,603.7753511462868 L653.8716719063234,553.0810263479898 M653.8716719063234,553.0810263479898 L650.8486509668527,551.7174046778379 M650.8486509668527,551.7174046778379 L647.3621728580102,550.8101250932505 M647.3621728580102,550.8101250932505 L643.6145125147796,550.4116895175778 M643.6145125147796,550.4116895175778 L639.8229782810187,550.5451437181023 M639.8229782810187,550.5451437181023 L636.2074342173664,551.202780626347 M636.2074342173664,551.202780626347 L632.9775491040007,552.3465312874177 M632.9775491040007,552.3465312874177 L630.3208263429894,553.9102059077373 M630.3208263429894,553.9102059077373 L628.3916711088233,555.8032284454719 M628.3916711088233,555.8032284454719 L627.3024149846154,557.9158325059841 M627.3024149846154,557.9158325059841 L627.1168217575852,560.125431212371 M627.1168217575852,560.125431212371 L627.8461667711008,562.303633869923 M627.8461667711008,562.303633869923 L629.4485493569006,564.3237507447202 M629.4485493569006,564.3237507447202 L631.8311857958557,566.068156268856 M631.8311857958557,566.068156268856 L634.8557201846713,567.4351800198763 M634.8557201846713,567.4351800198763 L638.3462469343699,568.3450823057303 M638.3462469343699,568.3450823057303 L642.0995636118929,568.7447603781404 M642.0995636118929,568.7447603781404 L645.8970660912432,568.6108838406481 M645.8970660912432,568.6108838406481 L649.5175230163345,567.9512564764093 M649.5175230163345,567.9512564764093 L652.7501401942817,566.8044032847181 M652.7501401942817,566.8044032847181 L655.4067882848523,565.2372247679527 M655.4067882848523,565.2372247679527 L657.3330792210227,563.3410996772914 M657.3330792210227,563.3410996772914 L658.4173376517373,561.2265051836661 M658.4173376517373,561.2265051836661 L658.5969446363916,559.0164841281211 M658.5969446363916,559.0164841281211 L657.8619962469686,556.8395239674663 M657.8619962469686,556.8395239674663 L656.2556768002073,554.8220297935329 M656.2556768002073,554.8220297935329 L653.8716719063234,553.0810263479898 M573.0674575289219,494.6988120089561 L573.455726193831,444.24266999808185 M353.10936635852795,368.5386062407526 L353.01264104965037,318.3636640469514 M573.455726193831,444.24266999808185 L353.01264104965037,318.3636640469514 M442.41757958505787,570.9770906386567 L442.5177965310386,520.3539035119165 M442.5177965310386,520.3539035119165 L573.455726193831,444.24266999808185 M222.45943041695165,443.1404723033117 L222.07465287592476,392.79850886049644 M222.07465287592476,392.79850886049644 L442.5177965310386,520.3539035119165 M353.01264104965037,318.3636640469514 L222.07465287592476,392.79850886049644" stroke="black"  stroke-width="4"  fill="red"/>
<path d="M287.6982033275103,109.3952945718105 L287.4608797768753,59.15254773252309 M287.4608797768753,59.15254773252309 L-63.215265915587565,253.27986580471696 M-62.20324190326983,303.9792365454088 L-63.215265915587565,253.27986580471696 M287.6982033275103,109.3952945718105 L-62.20324190326983,303.9792365454088 M512.2812476517297,638.6424418101747 L512.5418338051621,587.19227464441 M-62.20324190326983,303.9792365454088 L512.2812476517297,638.6424418101747 M-63.215265915587565,253.27986580471696 L512.5418338051621,587.19227464441 M512.5418338051621,587.19227464441 L863.2152659155876,381.43760541986575 M862.1800032130366,432.43031511423237 L863.2152659155876,381.43760541986575 M512.2812476517297,638.6424418101747 L862.1800032130366,432.43031511423237 M862.1800032130366,432.43031511423237 L287.6982033275103,109.3952945718105 M863.2152659155876,381.43760541986575 L287.4608797768753,59.15254773252309 M573.8457146872133,393.56303349093463 L352.91549203726476,267.9689314046142 M442.6184603551828,469.5049821375606 L573.8457146872133,393.56303349093463 M221.6881786753907,342.23456476190273 L442.6184603551828,469.5049821375606 M352.91549203726476,267.9689314046142 L221.6881786753907,342.23456476190273 M654.4451944793817,502.16000425941644 L656.8346175540597,503.8971837503489 M656.8346175540597,503.8971837503489 L658.4446314435364,505.91024815246703 M658.4446314435364,505.91024815246703 L659.1813343464629,508.0824301744169 M659.1813343464629,508.0824301744169 L659.0014378578999,510.287602405707 M659.0014378578999,510.287602405707 L657.9148603853225,512.3975592146513 M657.9148603853225,512.3975592146513 L655.9843537938491,514.2895272368264 M655.9843537938491,514.2895272368264 L653.3218372547367,515.8532709199894 M653.3218372547367,515.8532709199894 L650.0820398417723,516.9976111212383 M650.0820398417723,516.9976111212383 L646.4535092806228,517.655793337608 M646.4535092806228,517.655793337608 L642.6475107736659,517.7893765916122 M642.6475107736659,517.7893765916122 L638.8857717769762,517.3905741150113 M638.8857717769762,517.3905741150113 L635.3873880459387,516.4826654309344 M635.3873880459387,516.4826654309344 L632.3560201940019,515.1186374409247 M632.3560201940019,515.1186374409247 L629.9679715411702,513.3780557419516 M629.9679715411702,513.3780557419516 L628.3619120217566,511.36236853917995 M628.3619120217566,511.36236853917995 L627.6308375348818,509.1889439730588 M627.6308375348818,509.1889439730588 L627.8167471006944,506.98419410699603 M627.8167471006944,506.98419410699603 L628.9083447486504,504.87622780689674 M628.9083447486504,504.87622780689674 L630.8417286169804,502.98736245569756 M630.8417286169804,502.98736245569756 L633.5043203288151,501.4271228023047 M633.5043203288151,501.4271228023047 L636.7413735878221,500.28588524973236 M636.7413735878221,500.28588524973236 L640.3649693762743,499.62969356509876 M640.3649693762743,499.62969356509876 L644.1649729238173,499.49653266413344 M644.1649729238173,499.49653266413344 L647.9210301898346,499.89409259671646 M647.9210301898346,499.89409259671646 L651.4153470190179,500.79937847972735 M651.4153470190179,500.79937847972735 L654.4451944793817,502.16000425941644 M168.3354077332147,224.29517551658464 L170.59501357322625,225.94914660088608 M170.59501357322625,225.94914660088608 L172.0826746757291,227.86577290354973 M172.0826746757291,227.86577290354973 L172.71160692822517,229.93387581359133 M172.71160692822517,229.93387581359133 L172.44480350495286,232.03336878630157 M172.44480350495286,232.03336878630157 L171.29726070646203,234.04219104744047 M171.29726070646203,234.04219104744047 L169.33529931998086,235.8434579257356 M169.33529931998086,235.8434579257356 L166.6726904461148,237.33222469383634 M166.6726904461148,237.33222469383634 L163.46418097413925,238.42169090527094 M163.46418097413925,238.42169090527094 L159.8964984284594,239.04830924088327 M159.8964984284594,239.04830924088327 L156.17736000372503,239.17548614425422 M156.17736000372503,239.17548614425422 L152.52342091272845,238.79580911919612 M152.52342091272845,238.79580911919612 L149.1474847368439,237.93143880806684 M149.1474847368439,237.93143880806684 L146.24607024216536,236.63281595795857 M146.24607024216536,236.63281595795857 L143.98791025240155,234.97568426856364 M143.98791025240155,234.97568426856364 L142.50411986218842,233.05662141966013 M142.50411986218842,233.05662141966013 L141.8805964470846,230.98736420292403 M141.8805964470846,230.98736420292403 L142.15310774996487,228.8882636017861 M142.15310774996487,228.8882636017861 L143.30534982643672,226.88129049638025 M143.30534982643672,226.88129049638025 L145.26992540240153,225.08290595733007 M145.26992540240153,225.08290595733007 L147.93246444526955,223.59739438530454 M147.93246444526955,223.59739438530454 L151.13823606230412,222.51081049231945 M151.13823606230412,222.51081049231945 L154.70113998963188,221.88604133361542 M154.70113998963188,221.88604133361542 L158.41455369685474,221.75925679047066 M158.41455369685474,221.75925679047066 L162.06313347386794,222.13777950904085 M162.06313347386794,222.13777950904085 L165.43530347879792,222.99971327364293 M165.43530347879792,222.99971327364293 L168.3354077332147,224.29517551658464 M168.3354077332147,224.29517551658464 L167.83462956939218,173.7810111449424 M167.83462956939218,173.7810111449424 L164.92824312422414,172.4885803519332 M164.92824312422414,172.4885803519332 L161.54874048597142,171.62866392044577 M161.54874048597142,171.62866392044577 L157.8922023789349,171.25102721583514 M157.8922023789349,171.25102721583514 L154.17066513707113,171.37751498622146 M154.17066513707113,171.37751498622146 L150.59994248849648,172.00082179903248 M150.59994248849648,172.00082179903248 L147.38710949547982,173.08486277695025 M147.38710949547982,173.08486277695025 L144.7186758237154,174.56689857498574 M144.7186758237154,174.56689857498574 L142.74971489833626,176.36107643716835 M142.74971489833626,176.36107643716835 L141.5948525172696,178.36335643695355 M141.5948525172696,178.36335643695355 L141.32164005458526,180.45755018256762 M141.32164005458526,180.45755018256762 L141.9464242924887,182.5219719879049 M141.9464242924887,182.5219719879049 L143.43336625985683,184.43655189028357 M143.43336625985683,184.43655189028357 L145.69638689444707,186.08981366231245 M145.69638689444707,186.08981366231245 L148.604089169986,187.38540457321133 M148.604089169986,187.38540457321133 L151.98737436087816,188.24775717403955 M151.98737436087816,188.24775717403955 L155.6492952022982,188.6265480064479 M155.6492952022982,188.6265480064479 L159.37658225551792,188.49966793657376 M159.37658225551792,188.49966793657376 L162.95210454086282,187.87451223311325 M162.95210454086282,187.87451223311325 L166.16768751700283,186.7875893829407 M166.16768751700283,186.7875893829407 L168.83619147907314,185.30229889275208 M168.83619147907314,185.30229889275208 L170.8025269001881,183.50523913752943 M170.8025269001881,183.50523913752943 L171.95266950671746,181.5011102682743 M171.95266950671746,181.5011102682743 L172.22014910670742,179.40652421183006 M172.22014910670742,179.40652421183006 L171.58993228527845,177.34325653449176 M171.58993228527845,177.34325653449176 L170.099102536317,175.43111280115852 M170.099102536317,175.43111280115852 L167.83462956939218,173.7810111449424 M654.4451944793817,502.16000425941644 L655.0212876165082,451.0107509627837 M655.0212876165082,451.0107509627837 L651.9845827361929,449.65316165101456 M651.9845827361929,449.65316165101456 L648.4823918589507,448.749896467613 M648.4823918589507,448.749896467613 L644.7178999563097,448.35322403441796 M644.7178999563097,448.35322403441796 L640.909389172113,448.48608766461024 M640.909389172113,448.48608766461024 L637.2777057158121,449.14081455624785 M637.2777057158121,449.14081455624785 L634.0334524239388,450.279504965591 M634.0334524239388,450.279504965591 L631.3649657764562,451.8362631216038 M631.3649657764562,451.8362631216038 L629.4273347020359,453.7209149553821 M629.4273347020359,453.7209149553821 L628.33338545786,455.82418063009095 M628.33338545786,455.82418063009095 L628.1471585789278,458.02401590460033 M628.1471585789278,458.02401590460033 L628.8799707348077,460.19259756234885 M628.8799707348077,460.19259756234885 L630.4897240916404,462.20379498035646 M630.4897240916404,462.20379498035646 L632.8832095980151,463.9405009458159 M632.8832095980151,463.9405009458159 L635.9214418599822,465.30149249625 M635.9214418599822,465.30149249625 L639.4277180239004,466.20738050257177 M639.4277180239004,466.20738050257177 L643.1979172250234,466.60529549013876 M643.1979172250234,466.60529549013876 L647.0124498622224,466.47200950338816 M647.0124498622224,466.47200950338816 L650.6490901493931,465.8152920634277 M650.6490901493931,465.8152920634277 L653.8960997650113,464.67349897955745 M653.8960997650113,464.67349897955745 L656.564510732975,463.11323676458414 M656.564510732975,463.11323676458414 L658.4992514632708,461.2254822339871 M658.4992514632708,461.2254822339871 L659.5881578981385,459.1202260338557 M659.5881578981385,459.1202260338557 L659.7683446840958,456.91996839060175 M659.7683446840958,456.91996839060175 L659.0298789037926,454.75262928737243 M659.0298789037926,454.75262928737243 L657.4161535507303,452.7440546918627 M657.4161535507303,452.7440546918627 L655.0212876165082,451.0107509627837 M573.8457146872133,393.56303349093463 L574.2374345369896,342.658404415551 M352.91549203726476,267.9689314046142 L352.81791651238115,217.35295118826684 M574.2374345369896,342.658404415551 L352.81791651238115,217.35295118826684 M442.6184603551828,469.5049821375606 L442.7195740727109,418.4288034193431 M442.7195740727109,418.4288034193431 L574.2374345369896,342.658404415551 M221.6881786753907,342.23456476190273 L221.29999649358294,291.4471587361654 M221.29999649358294,291.4471587361654 L442.7195740727109,418.4288034193431 M352.81791651238115,217.35295118826684 L221.29999649358294,291.4471587361654" stroke="black"  stroke-width="4"  fill="red"/>
<path d="M202.6591570676318,207.0589323165786 L202.23691536359058,156.92123230319734 M26.340714153556576,305.5557974217925 L25.528999678045807,255.19039718004709 M202.6591570676318,207.0589323165786 L210.6406500049325,212.08124777176818 M210.6406500049325,212.08124777176818 L217.71064148649955,217.53065383196497 M217.71064148649955,217.53065383196497 L223.80041943709946,223.35583704333027 M223.80041943709946,223.35583704333027 L228.85028785308106,229.5017642750007 M228.85028785308106,229.5017642750007 L232.8102993915103,235.9102097762641 M232.8102993915103,235.9102097762641 L235.64060127039457,242.52021868564353 M235.64060127039457,242.52021868564353 L237.31207485911267,249.26873791250287 M237.31207485911267,249.26873791250287 L237.8065505730898,256.09113061505946 M237.8065505730898,256.09113061505946 L237.11712426598407,262.9218352685736 M237.11712426598407,262.9218352685736 L235.2482888340907,269.69495696255956 M235.2482888340907,269.69495696255956 L232.21598660433477,276.34493434826555 M232.21598660433477,276.34493434826555 L228.0475240593488,282.80716352752654 M228.0475240593488,282.80716352752654 L222.78133374275515,289.0186216314053 M222.78133374275515,289.0186216314053 L216.46681920261074,294.9185789657023 M216.46681920261074,294.9185789657023 L209.16372872831892,300.4491093499944 M209.16372872831892,300.4491093499944 L200.941806808876,305.55579742179236 M200.941806808876,305.55579742179236 L191.88001884091892,310.18823090434273 M191.88001884091892,310.18823090434273 L182.0658751427677,314.3005781134097 M182.0658751427677,314.3005781134097 L171.59450265529378,317.85203351015866 M171.59450265529378,317.85203351015866 L160.5678388677854,320.8073309443413 M160.5678388677854,320.8073309443413 L149.09342175934165,323.1370184619806 M149.09342175934165,323.1370184619806 L137.2834926751059,324.81789721791404 M137.2834926751059,324.81789721791404 L125.25371678490842,325.8331894731928 M125.25371678490842,325.8331894731928 L113.12202804333162,326.17275141313127 M113.12202804333162,326.17275141313127 L101.00744696177924,325.8331918507896 M101.00744696177924,325.8331918507896 L89.0287982183745,324.817901972252 M89.0287982183745,324.817901972252 L77.30354229248974,323.1370279678242 M77.30354229248974,323.1370279678242 L65.94647288851496,320.80732263016256 M65.94647288851496,320.80732263016256 L55.06865913009989,317.85204063286426 M55.06865913009989,317.85204063286426 L44.77618235755506,314.3005721815593 M44.77618235755506,314.3005721815593 L35.16916740721382,310.1882300152141 M35.16916740721382,310.1882300152141 L26.340714153556576,305.5557974217925 M202.23691536359058,156.92123230319734 L210.2355342967967,161.93184646215397 M210.2355342967967,161.93184646215397 L217.32067399830385,167.3685672200025 M217.32067399830385,167.3685672200025 L223.42347376281282,173.1802031069629 M223.42347376281282,173.1802031069629 L228.48410767696652,179.31185133067146 M228.48410767696652,179.31185133067146 L232.45251888090803,185.70542349491856 M232.45251888090803,185.70542349491856 L235.28876634094675,192.30010793128628 M235.28876634094675,192.30010793128628 L236.96366597817945,199.03299903222006 M236.96366597817945,199.03299903222006 L237.4590062086944,205.8396104714904 M237.4590062086944,205.8396104714904 L236.76786521658497,212.65453270335794 M236.76786521658497,212.65453270335794 L234.89474305039022,219.41202287337023 M234.89474305039022,219.41202287337023 L231.85561433053246,226.04667023111563 M231.85561433053246,226.04667023111563 L227.6778429884477,232.494018610492 M227.6778429884477,232.494018610492 L222.3999438368868,238.69118862581706 M222.3999438368868,238.69118862581706 L216.07142733291212,244.5775882548301 M216.07142733291212,244.5775882548301 L208.75217208045154,250.09542210016548 M208.75217208045154,250.09542210016548 L200.5120756159585,255.190397180047 M200.5120756159585,255.190397180047 L191.43027747565125,259.81221418924696 M191.43027747565125,259.81221418924696 L181.59448173623485,263.9151438107316 M181.59448173623485,263.9151438107316 L171.10002664755936,267.45847137816327 M171.10002664755936,267.45847137816327 L160.04907670750077,270.40700907053855 M160.04907670750077,270.40700907053855 L148.54940983287395,272.73137020850015 M148.54940983287395,272.73137020850015 L136.71351810246324,274.4084072665578 M136.71351810246324,274.4084072665578 L124.65732522230297,275.4213795718729 M124.65732522230297,275.4213795718729 L112.4990287359937,275.7601656995199 M112.4990287359937,275.7601656995199 L100.35791497340085,275.4213819440372 M100.35791497340085,275.4213819440372 L88.35307361318962,274.40841201003116 M88.35307361318962,274.40841201003116 L76.6022265237068,272.73137969261484 M76.6022265237068,272.73137969261484 L65.22042211663967,270.4070007753723 M65.22042211663967,270.4070007753723 L54.318975024472024,267.4584784845729 M54.318975024472024,267.4584784845729 L44.00419997595253,263.91513789246073 M44.00419997595253,263.91513789246073 L34.37644082450265,259.8122133021553 M34.37644082450265,259.8122133021553 L25.528999678045807,255.19039718004709 M-61.19565570584666,354.4562860566854 L-62.20324190326983,303.9792365454088 M26.340714153556576,305.5557974217925 L-61.19565570584666,354.4562860566854 M25.528999678045807,255.19039718004709 L-62.20324190326983,303.9792365454088 M512.0218380631845,689.8603078373778 L512.2812476517297,638.6424418101747 M-61.19565570584666,354.4562860566854 L512.0218380631845,689.8603078373778 M-62.20324190326983,303.9792365454088 L512.2812476517297,638.6424418101747 M599.5910485115636,638.0243621557588 L600.0465471796375,586.9181393423848 M512.0218380631845,689.8603078373778 L599.5910485115636,638.0243621557588 M512.2812476517297,638.6424418101747 L600.0465471796375,586.9181393423848 M775.907553157548,533.6551128407868 L776.7525074041114,482.77683766989946 M599.5910485115636,638.0243621557588 L591.1238971317337,632.6118904636064 M591.1238971317337,632.6118904636064 L583.6026949131423,626.7503547952815 M583.6026949131423,626.7503547952815 L577.099211166706,620.4974802720758 M577.099211166706,620.4974802720758 L571.6750355492752,613.9146704627988 M571.6750355492752,613.9146704627988 L567.3809023270468,607.0663297472402 M567.3809023270468,607.0663297472402 L564.2564536054962,600.0192688033583 M564.2564536054962,600.0192688033583 L562.3297248451073,592.8419501458568 M562.3297248451073,592.8419501458568 L561.6170976438968,585.6038801180873 M561.6170976438968,585.6038801180873 L562.1231601862949,578.3748712857919 M562.1231601862949,578.3748712857919 L563.840769254253,571.2244028755222 M563.840769254253,571.2244028755222 L566.751191838426,564.22092738538 M566.751191838426,564.22092738538 L570.8243813576861,557.4312486224239 M570.8243813576861,557.4312486224239 L576.0193942348458,550.9199241250226 M576.0193942348458,550.9199241250226 L582.2846948661091,544.74859681167 M582.2846948661091,544.74859681167 L589.5589188958259,538.9755569616708 M589.5589188958259,538.9755569616708 L597.7713098109889,533.6551128407868 M597.7713098109889,533.6551128407868 L606.8425588536286,528.8371967464388 M606.8425588536286,528.8371967464388 L616.6854978380841,524.5668877052465 M616.6854978380841,524.5668877052465 L627.2060105858475,520.8840723691475 M627.2060105858475,520.8840723691475 L638.3037743524942,517.8230315764133 M638.3037743524942,517.8230315764133 L649.8733818177973,515.4122653509569 M649.8733818177973,515.4122653509569 L661.8051012019968,513.6741346335447 M661.8051012019968,513.6741346335447 L673.9860059228992,512.624766546525 M673.9860059228992,512.624766546525 L686.3009512162665,512.2738929850518 M686.3009512162665,512.2738929850518 L698.6335655182279,512.6247640895758 M698.6335655182279,512.6247640895758 L710.8673389938575,513.6741297187473 M710.8673389938575,513.6741297187473 L722.8865984627131,515.4122555183837 M722.8865984627131,515.4122555183837 L734.577633336383,517.8230401835299 M734.577633336383,517.8230401835299 L745.8295859663061,520.8840649876834 M745.8295859663061,520.8840649876834 L756.535589948861,524.5668938604133 M756.535589948861,524.5668938604133 L766.593629896097,528.8371976704007 M766.593629896097,528.8371976704007 L775.907553157548,533.6551128407868 M600.0465471796375,586.9181393423848 L591.5601197823411,581.5173849686341 M591.5601197823411,581.5173849686341 L584.0217718256157,575.668551591464 M584.0217718256157,575.668551591464 L577.5034347859989,569.4292420927816 M577.5034347859989,569.4292420927816 L572.0668366121646,562.8607294453979 M572.0668366121646,562.8607294453979 L567.7628245682816,556.0272804209517 M567.7628245682816,556.0272804209517 L564.6311280753264,548.9955622600592 M564.6311280753264,548.9955622600592 L562.6998432431259,541.8338897649019 M562.6998432431259,541.8338897649019 L561.9853857501845,534.6116185531287 M561.9853857501845,534.6116185531287 L562.4923511949726,527.3984090246065 M562.4923511949726,527.3984090246065 L564.2135774723027,520.2635881890549 M564.2135774723027,520.2635881890549 L567.1302869238825,513.2754578134229 M567.1302869238825,513.2754578134229 L571.2123633889103,506.5006738685525 M571.2123633889103,506.5006738685525 L576.4187699046169,500.00365033363227 M576.4187699046169,500.00365033363227 L582.6978545194781,493.8458924062125 M582.6978545194781,493.8458924062125 L589.9881154084931,488.08555955779497 M589.9881154084931,488.08555955779497 L598.2186385297578,482.77683766989946 M598.2186385297578,482.77683766989946 L607.3099394634812,477.9695460820562 M607.3099394634812,477.9695460820562 L617.1746577769576,473.7086614802369 M617.1746577769576,473.7086614802369 L627.7184704529487,470.03397967874406 M627.7184704529487,470.03397967874406 L638.840834881546,466.97970322538845 M638.840834881546,466.97970322538845 L650.436113231137,464.57426690774156 M650.436113231137,464.57426690774156 L662.3943340917497,462.8399803810581 M662.3943340917497,462.8399803810581 L674.6023244624528,461.79293372832996 M674.6023244624528,461.79293372832996 L686.9446883322023,461.44283647197693 M686.9446883322023,461.44283647197693 L699.3048000413681,461.79293127681655 M699.3048000413681,461.79293127681655 L711.5658950000787,462.8399754771323 M711.5658950000787,462.8399754771323 L723.612046551663,464.5742570969116 M723.612046551663,464.5742570969116 L735.329294198865,466.9797118134798 M735.329294198865,466.9797118134798 L746.6065357275654,470.0339723135873 M746.6065357275654,470.0339723135873 L757.3366678811483,473.7086676218145 M757.3366678811483,473.7086676218145 L767.4174478999662,477.9695470039796 M767.4174478999662,477.9695470039796 L776.7525074041114,482.77683766989946 M861.1493318804005,483.1968731346399 L862.1800032130366,432.43031511423237 M775.907553157548,533.6551128407868 L861.1493318804005,483.1968731346399 M776.7525074041114,482.77683766989946 L862.1800032130366,432.43031511423237 M287.9345041311207,159.42152004311612 L287.6982033275103,109.3952945718105 M861.1493318804005,483.1968731346399 L287.9345041311207,159.42152004311612 M862.1800032130366,432.43031511423237 L287.6982033275103,109.3952945718105 M287.9345041311207,159.42152004311612 L202.6591570676318,207.0589323165786 M287.6982033275103,109.3952945718105 L202.23691536359058,156.92123230319734 M573.455726193831,444.24266999808185 L573.8457146872133,393.56303349093463 M353.01264104965037,318.3636640469514 L352.91549203726476,267.9689314046142 M573.455726193831,444.24266999808185 L353.01264104965037,318.3636640469514 M573.8457146872133,393.56303349093463 L352.91549203726476,267.9689314046142 M442.5177965310386,520.3539035119165 L442.6184603551828,469.5049821375606 M442.5177965310386,520.3539035119165 L573.455726193831,444.24266999808185 M442.6184603551828,469.5049821375606 L573.8457146872133,393.56303349093463 M222.07465287592476,392.79850886049644 L221.6881786753907,342.23456476190273 M222.07465287592476,392.79850886049644 L442.5177965310386,520.3539035119165 M221.6881786753907,342.23456476190273 L442.6184603551828,469.5049821375606 M353.01264104965037,318.3636640469514 L222.07465287592476,392.79850886049644 M352.91549203726476,267.9689314046142 L221.6881786753907,342.23456476190273" stroke="black"  stroke-width="4"  fill="red"/></svg>